<?xml version="1.0" encoding="utf-8"?>
<!-- Generator: Adobe Illustrator 22.0.1, SVG Export Plug-In . SVG Version: 6.00 Build 0)  -->
<svg version="1.1" id="Layer_1" xmlns="http://www.w3.org/2000/svg" xmlns:xlink="http://www.w3.org/1999/xlink" x="0px" y="0px"
	 viewBox="0 0 30 30" style="enable-background:new 0 0 30 30;" xml:space="preserve">
<path d="M11.8,8.7l6.1-1.1c0.4-0.1,0.8,0.2,0.9,0.6c0.1,0.4-0.2,0.8-0.6,0.9l-6.1,1.1c-0.4,0.1-0.8-0.2-0.9-0.6
	C11.1,9.2,11.4,8.8,11.8,8.7 M11.8,6.2c-0.4,0.1-0.7,0.5-0.6,0.9c0.1,0.4,0.5,0.7,0.9,0.6L15.9,7c0.4-0.1,0.7-0.5,0.6-0.9
	c-0.1-0.4-0.5-0.7-0.9-0.6L11.8,6.2z M13.3,21.6c-0.1,0-0.1-0.1-0.1-0.2l0-0.3c0-0.1,0-0.2-0.1-0.2l-1.6-1.6
	c-0.2-0.2-0.3-0.4-0.3-0.7V16c0-0.3,0.3-0.6,0.6-0.6h0.5v-0.2c0-0.2,0.2-0.3,0.3-0.3h4.7c0.2,0,0.3,0.2,0.3,0.3v0.2h0.5
	c0.3,0,0.6,0.3,0.6,0.6v2.5c0,0.3,0,0.5-0.3,0.7l-1.6,1.6c-0.1,0.1-0.1,0.1-0.1,0.2l0,0.3c0,0.1-0.1,0.2-0.1,0.2v1.7
	c0,0.2-0.3,0.5-0.5,0.6L16,24.2c-0.2,0.4-1.7,0.4-1.9,0l-0.2-0.4c-0.3-0.1-0.5-0.3-0.5-0.6V21.6z M17.2,14.1c0-0.4,0.1-0.9,0.3-1.3
	c0.2-0.5,0.5-1,1-1.3c0.7-0.5,0.1-1.6-0.7-1.4l-6,1.1c-0.7,0.2-0.9,1-0.3,1.4c0.5,0.4,0.8,0.9,1,1.4l1.6,0c-0.1-0.5-0.4-1.1-0.7-1.6
	l2.6-0.5c-0.3,0.7-0.4,1.4-0.5,2.1H17.2z"/>
</svg>
