<?xml version="1.0" encoding="utf-8"?>
<!-- Generator: Adobe Illustrator 22.0.1, SVG Export Plug-In . SVG Version: 6.00 Build 0)  -->
<svg version="1.1" id="Layer_1" xmlns="http://www.w3.org/2000/svg" xmlns:xlink="http://www.w3.org/1999/xlink" x="0px" y="0px"
	 viewBox="0 0 30 30" style="enable-background:new 0 0 30 30;" xml:space="preserve">
<g>
	<path d="M8.5,12.8H4c-0.3,0-0.6-0.3-0.6-0.6c0-0.3,0.3-0.6,0.6-0.6h4.5c0.8,0,1.5-0.7,1.5-1.5c0-0.8-0.7-1.5-1.5-1.5
		c-0.3,0-0.6-0.3-0.6-0.6c0-0.3,0.3-0.6,0.6-0.6c1.5,0,2.6,1.2,2.6,2.6C11.2,11.6,10,12.8,8.5,12.8"/>
	<path d="M16.2,15.4H5.8c-0.3,0-0.6-0.3-0.6-0.6c0-0.3,0.3-0.6,0.6-0.6h10.4c1,0,1.9-0.4,2.5-1.1c0.4-0.4,0.6-0.8,0.8-1.3
		c0.4-1.1,0.2-2.6-0.5-3.7c-0.6-0.9-1.5-1.4-2.5-1.4c-1.3,0-2.4,1.1-2.4,2.4c0,1.3,1.1,2.4,2.4,2.4c0.3,0,0.6,0.3,0.6,0.6
		c0,0.3-0.3,0.6-0.6,0.6c-2,0-3.6-1.6-3.6-3.6c0-2,1.6-3.6,3.6-3.6c1.4,0,2.7,0.7,3.5,1.9c1,1.4,1.2,3.3,0.7,4.8
		c-0.2,0.6-0.6,1.2-1.1,1.7C18.7,14.9,17.5,15.4,16.2,15.4"/>
	<path d="M12,24.3c-1.5,0-2.8-1.3-2.8-2.8c0-0.8,0.3-1.6,0.9-2.1c0.2-0.2,0.6-0.2,0.8,0.1c0.2,0.2,0.2,0.6,0,0.8
		c-0.3,0.3-0.5,0.7-0.5,1.2c0,0.9,0.7,1.6,1.6,1.6c0.9,0,1.4-0.5,1.7-0.9c0.5-0.7,0.7-1.8,0.4-2.6c-0.1-0.3-0.3-0.6-0.6-0.9
		c-0.5-0.5-1.1-0.7-1.7-0.7H4c-0.3,0-0.6-0.3-0.6-0.6c0-0.3,0.3-0.6,0.6-0.6h7.7c1.1,0,2,0.4,2.7,1.1c0.4,0.4,0.7,0.8,0.8,1.3
		c0.4,1.2,0.2,2.6-0.5,3.7C14.1,23.8,13.1,24.3,12,24.3"/>
	<path d="M21.3,22.1c-0.3,0-0.6-0.3-0.6-0.6c0-0.3,0.3-0.6,0.6-0.6c0.8,0,1.5-0.7,1.5-1.5c0-0.8-0.7-1.5-1.5-1.5h-5.2
		c-0.3,0-0.6-0.3-0.6-0.6c0-0.3,0.3-0.6,0.6-0.6h5.2c1.5,0,2.6,1.2,2.6,2.6C23.9,20.9,22.8,22.1,21.3,22.1"/>
	<rect x="24.1" y="4.2" width="2.5" height="21.6"/>
</g>
</svg>
