<?xml version="1.0" encoding="utf-8"?>
<!-- Generator: Adobe Illustrator 22.0.1, SVG Export Plug-In . SVG Version: 6.00 Build 0)  -->
<svg version="1.1" id="Layer_1" xmlns="http://www.w3.org/2000/svg" xmlns:xlink="http://www.w3.org/1999/xlink" x="0px" y="0px"
	 viewBox="0 0 30 30" style="enable-background:new 0 0 30 30;" xml:space="preserve">
<path d="M16.5,17.7C16,17.9,15.5,18,15,18c-0.7,0-1.4-0.3-1.9-0.7c-1,1.5-1.3,3.3-0.1,4.5c1.5,1.4,5.3,1,5.9-0.6
	C19.3,19.8,17.6,19.2,16.5,17.7 M17.6,13.4c1.5-1.1,2.1-2.7,3.4-2.3c1.7,0.6,2,4.4,0.6,5.9c-1.2,1.2-2.8,0.9-4.3,0
	c0.5-0.5,0.8-1.2,0.8-2C18,14.4,17.9,13.9,17.6,13.4 M13.6,12.3C14,12.1,14.5,12,15,12c0.7,0,1.4,0.3,2,0.7c1-1.6,1.3-3.3,0-4.5
	c-1.5-1.4-5.3-0.9-5.9,0.7C10.7,10.2,12.4,10.8,13.6,12.3 M15,12.7c-1.3,0-2.3,1-2.3,2.3s1,2.3,2.3,2.3c1.3,0,2.3-1,2.3-2.3
	S16.3,12.7,15,12.7 M8.4,13c1.2-1.2,2.9-0.9,4.4,0c-0.5,0.5-0.8,1.3-0.8,2c0,0.6,0.2,1.1,0.4,1.5c-1.4,1.2-2,2.7-3.3,2.3
	C7.4,18.3,7,14.5,8.4,13"/>
</svg>
