<?xml version="1.0" encoding="utf-8"?>
<!-- Generator: Adobe Illustrator 22.0.1, SVG Export Plug-In . SVG Version: 6.00 Build 0)  -->
<svg version="1.1" id="Layer_1" xmlns="http://www.w3.org/2000/svg" xmlns:xlink="http://www.w3.org/1999/xlink" x="0px" y="0px"
	 viewBox="0 0 30 30" style="enable-background:new 0 0 30 30;" xml:space="preserve">
<g>
	<rect x="5.8" y="9.5" transform="matrix(0.7071 -0.7071 0.7071 0.7071 -4.442 11.014)" width="10.6" height="2.7"/>
	<rect x="13.8" y="17.6" transform="matrix(0.7071 -0.7071 0.7071 0.7071 -7.7775 19.0663)" width="10.6" height="2.7"/>
	<rect x="10.1" y="10.6" transform="matrix(0.7071 -0.7071 0.7071 0.7071 -3.9205 14.3746)" width="10.6" height="2.7"/>
	<rect x="6.3" y="17" transform="matrix(0.7071 -0.7071 0.7071 0.7071 -10.3171 11.7251)" width="5.3" height="2.7"/>
	<rect x="8.3" y="17.8" transform="matrix(0.7071 -0.7071 0.7071 0.7071 -9.5537 15.1973)" width="10.6" height="2.7"/>
	<rect x="17.3" y="11.4" transform="matrix(0.7071 -0.7071 0.7071 0.7071 -3.1572 17.8469)" width="5.3" height="2.7"/>
</g>
</svg>
