<?xml version="1.0" encoding="utf-8"?>
<!-- Generator: Adobe Illustrator 22.0.1, SVG Export Plug-In . SVG Version: 6.00 Build 0)  -->
<svg version="1.1" id="Layer_1" xmlns="http://www.w3.org/2000/svg" xmlns:xlink="http://www.w3.org/1999/xlink" x="0px" y="0px"
	 viewBox="0 0 30 30" style="enable-background:new 0 0 30 30;" xml:space="preserve">
<g>
	<path d="M17.1,18.2c1.4,0,2.5-1.2,2.5-2.9c0-1.7-1.1-2.9-2.5-2.9c-1.4,0-2.5,1.2-2.5,2.9C14.6,17,15.6,18.2,17.1,18.2z M17.1,13.6
		c0.7,0,1.2,0.7,1.2,1.8c0,1-0.5,1.7-1.2,1.7c-0.7,0-1.2-0.7-1.2-1.7C15.9,14.3,16.3,13.6,17.1,13.6z"/>
	<path d="M20.5,14c0.6,0,0.9-0.4,0.9-0.9c0-0.5-0.3-0.9-0.9-0.9c-0.6,0-0.9,0.4-0.9,0.9C19.6,13.5,20,14,20.5,14z M20.5,12.6
		c0.2,0,0.4,0.2,0.4,0.5c0,0.3-0.2,0.5-0.4,0.5s-0.4-0.2-0.4-0.5C20.1,12.8,20.3,12.6,20.5,12.6z"/>
	<polygon points="10.5,18.2 11.9,18.2 14.8,12.5 10.2,12.5 10.2,13.7 12.7,13.7 	"/>
	<path d="M15,3.4C8.6,3.4,3.4,8.6,3.4,15S8.6,26.6,15,26.6c6.4,0,11.6-5.2,11.6-11.6S21.4,3.4,15,3.4z M4.5,15.5h1.9v-0.9h-2
		c0.1-2.6,1.1-5,2.8-6.8l0.7,0.7l0.6-0.6L7.8,7.3c1.9-1.8,4.4-2.8,7.2-2.8c2.8,0,5.3,1.1,7.2,2.8l-0.6,0.6l0.6,0.6l0.6-0.6
		c1.6,1.8,2.7,4.1,2.7,6.7h-1.9v0.9h1.9c-0.1,2.6-1.2,4.9-2.8,6.7l-0.6-0.6l-0.6,0.6l0.6,0.6c-1.8,1.6-4.1,2.6-6.7,2.8v-1.9h-0.9
		v1.9c-2.6-0.1-4.9-1.1-6.7-2.7l0.6-0.6l-0.6-0.6l-0.6,0.6C5.6,20.4,4.6,18.1,4.5,15.5z"/>
</g>
</svg>
