<?xml version="1.0" encoding="utf-8"?>
<!-- Generator: Adobe Illustrator 22.0.1, SVG Export Plug-In . SVG Version: 6.00 Build 0)  -->
<svg version="1.1" id="Layer_1" xmlns="http://www.w3.org/2000/svg" xmlns:xlink="http://www.w3.org/1999/xlink" x="0px" y="0px"
	 viewBox="0 0 30 30" style="enable-background:new 0 0 30 30;" xml:space="preserve">
<path d="M22.8,13.3c0-0.2-0.2-0.3-0.4-0.3h-4.1c-0.2,0-0.4,0.1-0.3,0.3c0.1,0.9,0.1,1.7,0.2,2.6c0,0.2,0.2,0.3,0.4,0.3h4.3
	c0.2,0,0.4-0.1,0.3-0.3C23.1,15,22.9,14.2,22.8,13.3 M18.3,12.5h4c0.2,0,0.3-0.1,0.3-0.3c-0.1-0.9-0.3-1.7-0.4-2.6
	c0-0.2-0.2-0.3-0.4-0.3H18c-0.2,0-0.3,0.1-0.3,0.3c0.1,0.9,0.1,1.7,0.2,2.6C17.9,12.4,18.1,12.5,18.3,12.5 M23.2,16.6H6.8
	c-0.4,0-0.7-0.2-0.6-0.5c0.4-2.2,0.8-4.5,1.2-6.7c0.1-0.3,0.3-0.5,0.7-0.5h13.8c0.4,0,0.7,0.3,0.7,0.5c0.4,2.2,0.8,4.5,1.2,6.7
	C23.9,16.4,23.6,16.6,23.2,16.6 M24.7,16.1c-0.4-2.2-0.9-4.5-1.3-6.7c-0.1-0.6-0.7-1.2-1.5-1.2H8.2c-0.8,0-1.4,0.6-1.5,1.2
	c-0.4,2.2-0.9,4.5-1.3,6.7c-0.1,0.7,0.6,2.1,1.3,2.1H14c-0.2,0.9-0.4,2-0.4,3.2c0,0,0,0,0,0.1c0,0.2,0.7,0.3,1.5,0.3
	c0.8,0,1.5-0.2,1.5-0.3c0,0,0,0,0-0.1c0-1.2-0.2-2.3-0.4-3.2h7.3C24.1,18.2,24.8,16.8,24.7,16.1 M12,9.3H8.2C8,9.3,7.9,9.4,7.8,9.6
	c-0.1,0.9-0.3,1.7-0.4,2.6c0,0.2,0.1,0.3,0.3,0.3h4c0.2,0,0.4-0.1,0.4-0.3c0.1-0.9,0.1-1.7,0.2-2.6C12.3,9.4,12.1,9.3,12,9.3
	 M13,12.5h4c0.2,0,0.4-0.1,0.3-0.3c0-0.9-0.1-1.7-0.1-2.6c0-0.2-0.2-0.3-0.4-0.3h-3.7c-0.2,0-0.3,0.1-0.4,0.3c0,0.9-0.1,1.7-0.1,2.6
	C12.6,12.4,12.8,12.5,13,12.5 M11.7,13H7.6c-0.2,0-0.4,0.1-0.4,0.3c-0.1,0.9-0.3,1.7-0.4,2.6c0,0.2,0.1,0.3,0.3,0.3h4.3
	c0.2,0,0.4-0.1,0.4-0.3c0.1-0.9,0.1-1.7,0.2-2.6C12.1,13.1,11.9,13,11.7,13 M17,13H13c-0.2,0-0.4,0.1-0.4,0.3c0,0.9-0.1,1.7-0.1,2.6
	c0,0.2,0.2,0.3,0.4,0.3h4.3c0.2,0,0.4-0.1,0.4-0.3c0-0.9-0.1-1.7-0.1-2.6C17.4,13.1,17.2,13,17,13"/>
</svg>
