<?xml version="1.0" encoding="utf-8"?>
<!-- Generator: Adobe Illustrator 22.0.1, SVG Export Plug-In . SVG Version: 6.00 Build 0)  -->
<svg version="1.1" id="Layer_1" xmlns="http://www.w3.org/2000/svg" xmlns:xlink="http://www.w3.org/1999/xlink" x="0px" y="0px"
	 viewBox="0 0 30 30" style="enable-background:new 0 0 30 30;" xml:space="preserve">
<path d="M15,21.1c-1.4,0-2.4-0.4-3.3-0.7c-0.9-0.3-1.7-0.6-2.6-0.2c-0.1,0-0.2,0-0.2-0.1l-0.7-1.4c0-0.1,0-0.2,0.1-0.2
	c1.5-0.6,2.5-0.4,4.1,0.2c0.8,0.3,1.6,0.6,2.7,0.6c1.1,0,1.9-0.3,2.7-0.6c1.5-0.6,2.5-0.8,4.1-0.2c0.1,0,0.1,0.1,0.1,0.2L21.2,20
	c-0.1,0.1-0.1,0.1-0.2,0.1c-0.9-0.3-1.7-0.1-2.6,0.2C17.4,20.7,16.4,21.1,15,21.1 M15,24.4c-1.3,0-2.4-0.3-3.4-0.6
	c-0.3-0.1-0.5-0.1-0.8-0.2c-0.2,0-0.3-0.1-0.4-0.3l-0.7-1.4c-0.1-0.1,0-0.3,0.2-0.3c0.8,0,1.5,0.2,2.2,0.4c0.9,0.2,1.8,0.5,2.9,0.5
	c1.1,0,2-0.3,2.9-0.5c0.7-0.2,1.5-0.4,2.2-0.4c0.2,0,0.2,0.1,0.2,0.3l-0.7,1.4c-0.1,0.2-0.2,0.3-0.4,0.3c-0.3,0.1-0.5,0.1-0.8,0.2
	C17.4,24.1,16.3,24.4,15,24.4 M19,13.7c0,2.2-1.8,4-4,4c-2.2,0-4-1.8-4-4c0-2.4,3.2-4.8,4-8.1C15.8,9,19,11.3,19,13.7"/>
</svg>
