<?xml version="1.0" encoding="utf-8"?>
<!-- Generator: Adobe Illustrator 22.0.1, SVG Export Plug-In . SVG Version: 6.00 Build 0)  -->
<svg version="1.1" id="Layer_1" xmlns="http://www.w3.org/2000/svg" xmlns:xlink="http://www.w3.org/1999/xlink" x="0px" y="0px"
	 viewBox="0 0 30 30" style="enable-background:new 0 0 30 30;" xml:space="preserve">
<path d="M9.1,6.4v17.2h11.8V6.4H9.1z M16.8,7.5h3V11h-3V7.5z M19.8,11.4v3.1h-3v-3.1H19.8z M13.6,7.5h2.8V11h-2.8V7.5z M16.4,11.4
	v3.1h-2.8v-3.1H16.4z M10.2,7.5h3V11h-3V7.5z M13.2,11.4v3.1h-3v-3.1H13.2z M13.2,22.5h-3v-3.3h3V22.5z M10.2,18.9v-3.3h3v3.3H10.2z
	 M16.4,22.5h-2.8v-3.3h2.8V22.5z M13.6,18.9v-3.3h2.8v3.3H13.6z M19.8,22.5h-3v-3.3h3V22.5z M16.8,18.9v-3.3h3v3.3H16.8z"/>
</svg>
