<?xml version="1.0" encoding="utf-8"?>
<!-- Generator: Adobe Illustrator 22.0.1, SVG Export Plug-In . SVG Version: 6.00 Build 0)  -->
<svg version="1.1" id="Layer_1" xmlns="http://www.w3.org/2000/svg" xmlns:xlink="http://www.w3.org/1999/xlink" x="0px" y="0px"
	 viewBox="0 0 30 30" style="enable-background:new 0 0 30 30;" xml:space="preserve">
<path d="M18.3,7.1c0-0.3-0.3-0.6-0.6-0.6c-0.3,0-0.6,0.3-0.6,0.6v4h1.3V7.1z M15,23.5h-0.8c-0.4,0-0.6-0.2-0.6-0.5
	c-0.6-2.9-1.3-4-3.6-6.4c-0.3-0.4-0.4-0.7-0.4-1.3v-2.5c0-0.5,0.4-0.9,0.9-0.9H15h4.6c0.5,0,0.9,0.4,0.9,0.9v2.5
	c0,0.6-0.1,0.9-0.4,1.3c-2.3,2.4-3,3.5-3.6,6.4c-0.1,0.3-0.2,0.5-0.6,0.5H15z M13,7.1c0-0.3-0.3-0.6-0.6-0.6c-0.3,0-0.6,0.3-0.6,0.6
	v4H13V7.1z"/>
</svg>
