<?xml version="1.0" encoding="utf-8"?>
<!-- Generator: Adobe Illustrator 22.0.1, SVG Export Plug-In . SVG Version: 6.00 Build 0)  -->
<svg version="1.1" id="Layer_1" xmlns="http://www.w3.org/2000/svg" xmlns:xlink="http://www.w3.org/1999/xlink" x="0px" y="0px"
	 viewBox="0 0 100 100" style="enable-background:new 0 0 100 100;" xml:space="preserve">
<path d="M94.4,49.3c-0.4-2.3-2.5-4.1-4.9-4.1H54.7V10.5c0-2.6-2.2-4.8-4.8-4.8l-0.6,0c-2.4,0.4-4.1,2.5-4.1,4.9v34.7H10.5
	c-2.6,0-4.8,2.2-4.8,4.8l0,0.6c0.4,2.4,2.5,4.1,4.9,4.1h34.7v34.8c0,2.6,2.2,4.8,4.8,4.8h0.3l0.3,0c2.3-0.4,4.1-2.5,4.1-4.9V54.7
	h34.8c2.6,0,4.8-2.2,4.8-4.8L94.4,49.3z"/>
</svg>
