<?xml version="1.0" encoding="utf-8"?>
<!-- Generator: Adobe Illustrator 22.0.1, SVG Export Plug-In . SVG Version: 6.00 Build 0)  -->
<svg version="1.1" id="Layer_1" xmlns="http://www.w3.org/2000/svg" xmlns:xlink="http://www.w3.org/1999/xlink" x="0px" y="0px"
	 viewBox="0 0 56.2 56.2" style="enable-background:new 0 0 56.2 56.2;" xml:space="preserve">
<style type="text/css">
	.st0{fill:#FFFFFF;}
</style>
<g>
	<path class="st0" d="M49.4,11.4H39c-0.4-2.1-2.3-3.7-4.6-3.7H21.8c-2.3,0-4.1,1.6-4.6,3.7H6.7c-2.6,0-4.7,2.1-4.7,4.7v27.7
		c0,2.6,2.1,4.7,4.7,4.7h42.7c2.6,0,4.7-2.1,4.7-4.7V16.1C54.1,13.5,52,11.4,49.4,11.4z M50.3,43.8c0,0.5-0.4,0.9-0.9,0.9H6.7
		c-0.5,0-0.9-0.4-0.9-0.9V16.1c0-0.5,0.4-0.9,0.9-0.9h10.4h2.4L21,12l0,0c0.1-0.3,0.5-0.5,0.8-0.5h12.6c0.4,0,0.7,0.2,0.8,0.5l0,0
		l1.4,3.2h2.4h10.4c0.5,0,0.9,0.4,0.9,0.9V43.8z"/>
	<path class="st0" d="M28.1,19c-6.1,0-11.1,5-11.1,11.1c0,6.1,5,11.1,11.1,11.1s11.1-5,11.1-11.1C39.2,24,34.2,19,28.1,19z
		 M28.1,37.7c-4.2,0-7.6-3.4-7.6-7.6s3.4-7.6,7.6-7.6s7.6,3.4,7.6,7.6S32.3,37.7,28.1,37.7z"/>
	<rect x="9.4" y="18.9" class="st0" width="3.8" height="3.8"/>
</g>
</svg>
