<?xml version="1.0" encoding="utf-8"?>
<!-- Generator: Adobe Illustrator 22.0.1, SVG Export Plug-In . SVG Version: 6.00 Build 0)  -->
<svg version="1.1" id="Layer_1" xmlns="http://www.w3.org/2000/svg" xmlns:xlink="http://www.w3.org/1999/xlink" x="0px" y="0px"
	 viewBox="0 0 30 30" style="enable-background:new 0 0 30 30;" xml:space="preserve">
<g>
	<path d="M18.7,23c0,0.8,0.7,1.5,1.5,1.5c0.8,0,1.5-0.7,1.5-1.5c0-0.9-1.2-1.8-1.5-3C19.9,21.2,18.7,22.1,18.7,23"/>
	<path d="M22,17.2h-3.6c-0.5,0-0.8,0.4-0.8,0.8v0.4c0,0.5,0.4,0.8,0.8,0.8H22c0.5,0,0.8-0.4,0.8-0.8V18C22.8,17.5,22.5,17.2,22,17.2
		"/>
	<path d="M9.3,15.2v-3.6c0-0.5-0.4-0.8-0.8-0.8H8c-0.5,0-0.8,0.4-0.8,0.8v3.6C7.2,15.7,7.5,16,8,16h0.4C8.9,16,9.3,15.7,9.3,15.2"/>
	<path d="M9.9,8.5c0.6,0,1-0.3,1.2-0.8h1.6c0.2,0.6,0.8,1.1,1.5,1.1c0.7,0,1.3-0.5,1.5-1.1h1.6c0.2,0.5,0.7,0.8,1.2,0.8
		c0.7,0,1.3-0.6,1.3-1.3c0-0.7-0.6-1.3-1.3-1.3c-0.5,0-1,0.3-1.2,0.8h-1.7c-0.2-0.6-0.8-1-1.5-1s-1.3,0.4-1.5,1h-1.7
		c-0.2-0.4-0.7-0.8-1.2-0.8c-0.7,0-1.3,0.6-1.3,1.3C8.5,7.9,9.1,8.5,9.9,8.5"/>
	<path d="M18.4,16.4v0.3h3.6v-1.6v-1.6c0-1.1-0.9-2.1-2.1-2.1h-1.6h-1.9c0-1.3-1-2.3-2.3-2.3s-2.3,1-2.3,2.3H9.8v3.6h7.4
		C17.9,15.2,18.4,15.7,18.4,16.4"/>
</g>
</svg>
