<?xml version="1.0" encoding="utf-8"?>
<!-- Generator: Adobe Illustrator 22.0.1, SVG Export Plug-In . SVG Version: 6.00 Build 0)  -->
<svg version="1.1" id="Layer_1" xmlns="http://www.w3.org/2000/svg" xmlns:xlink="http://www.w3.org/1999/xlink" x="0px" y="0px"
	 viewBox="0 0 100 100" style="enable-background:new 0 0 100 100;" xml:space="preserve">
<path d="M80.9,18.2c-1.9-1.4-4.7-1.2-6.3,0.5L49.9,43.3L25.4,18.8c-1.9-1.9-4.9-1.9-6.8,0l-0.4,0.4c-1.4,1.9-1.2,4.7,0.5,6.3
	l24.5,24.5L18.7,74.7c-1.9,1.9-1.9,4.9,0,6.8l0.4,0.4c1.9,1.4,4.7,1.2,6.4-0.5L50,56.8l24.6,24.6c1.9,1.9,4.9,1.9,6.8,0l0.2-0.2
	l0.2-0.2c1.4-1.9,1.2-4.7-0.5-6.3L56.7,50l24.6-24.6c1.9-1.9,1.9-4.9,0-6.8L80.9,18.2z"/>
</svg>
