<?xml version="1.0" encoding="utf-8"?>
<!-- Generator: Adobe Illustrator 22.0.1, SVG Export Plug-In . SVG Version: 6.00 Build 0)  -->
<svg version="1.1" id="Layer_1" xmlns="http://www.w3.org/2000/svg" xmlns:xlink="http://www.w3.org/1999/xlink" x="0px" y="0px"
	 viewBox="0 0 30 30" style="enable-background:new 0 0 30 30;" xml:space="preserve">
<g>
	<path d="M9.6,15.2c0.2-0.2,0.2-0.5,0-0.7l-0.1-0.1l0.3-0.3l0.4,0.4l1.1-1.1l1.9,1.9l1.6-1.6l-1.9-1.9l1.3-1.3l-0.8-0.8L15.3,8
		l-0.2-0.2c-0.6-0.6-1.8-0.4-3.2,0.6l-0.3-0.3L7.8,12l0.4,0.4l-0.3,0.3l-0.1-0.1c-0.2-0.2-0.5-0.2-0.7,0l-0.7,0.7
		c-0.2,0.2-0.2,0.5,0,0.7l1.9,1.9c0.2,0.2,0.5,0.2,0.7,0L9.6,15.2z"/>
	<path d="M17.9,16.1l-0.3,0.3l-2,2l3.8,4c0.1,0.1,0.3,0.1,0.4-0.1l2-2c0.1-0.1,0.2-0.3,0.1-0.4L17.9,16.1z"/>
	<path d="M23.3,9.8L21,12.1l-1.8-1.8L21.5,8c-0.4-0.3-0.9-0.4-1.4-0.4c-0.7,0-1.3,0.3-1.8,0.8l-1,1c-0.9,0.9-1,2.3-0.3,3.3l-1.5,1.5
		l-6.1,6.1c-0.5,0.5-0.5,1.3,0,1.8c0.2,0.2,0.6,0.4,0.9,0.4c0.3,0,0.6-0.1,0.9-0.4l6.1-6.1l1.5-1.5c0.4,0.3,0.9,0.4,1.4,0.4
		c0.7,0,1.3-0.3,1.8-0.8l1-1C23.9,12.2,24,10.8,23.3,9.8z M10.6,21.6c-0.1,0.1-0.3,0.2-0.4,0.2c-0.2,0-0.3-0.1-0.4-0.2
		c-0.2-0.2-0.2-0.6,0-0.9c0.1-0.1,0.3-0.2,0.4-0.2c0.2,0,0.3,0.1,0.4,0.2C10.8,21,10.8,21.4,10.6,21.6z"/>
</g>
</svg>
