<?xml version="1.0" encoding="utf-8"?>
<!-- Generator: Adobe Illustrator 22.0.1, SVG Export Plug-In . SVG Version: 6.00 Build 0)  -->
<svg version="1.1" id="Layer_1" xmlns="http://www.w3.org/2000/svg" xmlns:xlink="http://www.w3.org/1999/xlink" x="0px" y="0px"
	 viewBox="0 0 100 100" style="enable-background:new 0 0 100 100;" xml:space="preserve">
<g>
	<polygon points="11.3,11.3 11.3,23.2 11.3,40.3 23.2,40.3 23.2,23.2 40.2,23.2 40.2,11.3 23.2,11.3 	"/>
	<polygon points="76.8,11.3 59.8,11.3 59.8,23.2 76.8,23.2 76.8,40.3 88.7,40.3 88.7,23.2 88.7,11.3 	"/>
	<polygon points="76.8,76.8 59.8,76.8 59.8,88.7 76.8,88.7 88.7,88.7 88.7,76.8 88.7,59.7 76.8,59.7 	"/>
	<polygon points="23.2,59.7 11.3,59.7 11.3,76.8 11.3,88.7 23.2,88.7 40.2,88.7 40.2,76.8 23.2,76.8 	"/>
</g>
</svg>
